<?xml version="1.0" encoding="utf-8"?>
<!-- Generator: Adobe Illustrator 23.0.3, SVG Export Plug-In . SVG Version: 6.00 Build 0)  -->
<svg version="1.1" id="Layer_1" xmlns="http://www.w3.org/2000/svg" xmlns:xlink="http://www.w3.org/1999/xlink" x="0px" y="0px"
	 viewBox="0 0 1000 200.5" style="enable-background:new 0 0 1000 200.5;" xml:space="preserve">
<style type="text/css">
	.st0{fill:#113984;}
</style>
<g>
	<path class="st0" d="M99.7,0.1C44.7,0.1,0,44.8,0,99.8s44.7,99.7,99.7,99.7s99.7-44.7,99.7-99.7S154.8,0.1,99.7,0.1z M25.2,120.4
		c-5,0-9-4-9-9s4-9,9-9s9,4,9,9C34.3,116.3,30.2,120.4,25.2,120.4z M50.1,120.4c-5,0-9-4-9-9s4-9,9-9s9,4,9,9
		C59.1,116.3,55.1,120.4,50.1,120.4z M50.1,96.6c-5,0-9-4-9-9s4-9,9-9s9,4,9,9S55.1,96.6,50.1,96.6z M83.5,105.8v7.5v0.4v2.8v15.4
		v0.4v2.8c0,4.7-3.9,8.6-8.6,8.6c-4.7,0-8.6-3.9-8.6-8.6v-2.8v-0.4v-15.4v-2.8v-0.4v-7.5V87.3c0-4.7,3.9-8.6,8.6-8.6
		c4.7,0,8.6,3.9,8.6,8.6V105.8z M74.9,74c-5,0-9-4-9-9s4-9,9-9s9,4,9,9S79.9,74,74.9,74z M99.7,120.4c-5,0-9-4-9-9s4-9,9-9s9,4,9,9
		C108.8,116.3,104.7,120.4,99.7,120.4z M133.2,105.8v7.5v0.4v2.8v15.4v0.4v2.8c0,4.7-3.9,8.6-8.6,8.6c-4.7,0-8.6-3.9-8.6-8.6v-2.8
		v-0.4v-15.4v-2.8v-0.4v-7.5V87.3c0-4.7,3.9-8.6,8.6-8.6c4.7,0,8.6,3.9,8.6,8.6V105.8z M124.6,74c-5,0-9-4-9-9s4-9,9-9c5,0,9,4,9,9
		S129.6,74,124.6,74z M149.3,120.4c-5,0-9-4-9-9s4-9,9-9s9,4,9,9C158.3,116.3,154.3,120.4,149.3,120.4z M149.3,96.6c-5,0-9-4-9-9
		s4-9,9-9s9,4,9,9S154.3,96.6,149.3,96.6z M174.1,120.4c-5,0-9-4-9-9s4-9,9-9c5,0,9,4,9,9C183.3,116.3,179.1,120.4,174.1,120.4z"/>
	<g>
		<path class="st0" d="M243,49.2c-14.3,0-20.3-11.3-20.3-22.5s6-22.5,20.3-22.5c7.9,0,14.7,4.5,16.6,12.4h5.2
			C263.3,6,253.4,0,243.2,0c-17.1,0-25.6,12.6-25.6,26.7S226,53.4,243,53.4c12.6,0,21-8,22.4-20.7h-5.2
			C259.3,41.8,253,49.2,243,49.2z"/>
		<path class="st0" d="M297.7,0.1c-17,0-25.4,12.6-25.4,26.7s8.4,26.7,25.4,26.7c16.9,0,25.3-12.6,25.3-26.7
			C323.2,12.7,314.7,0.1,297.7,0.1z M297.7,49.2c-14.3,0-20.3-11.3-20.3-22.5s6-22.5,20.3-22.5c14.1,0,20.2,11.3,20.2,22.5
			C318,37.9,312,49.2,297.7,49.2z"/>
		<polygon class="st0" points="356.2,46.9 337.6,0.1 330.1,0.1 330.1,53.5 335.1,53.5 335.1,7.3 335.4,7.3 353.8,53.5 358.6,53.5
			377,7.3 377.3,7.3 377.3,53.5 382.3,53.5 382.3,0.1 374.9,0.1 		"/>
		<polygon class="st0" points="415.5,46.9 396.9,0.1 389.3,0.1 389.3,53.5 394.4,53.5 394.4,7.3 394.6,7.3 413.1,53.5 417.9,53.5
			436.3,7.3 436.5,7.3 436.5,53.5 441.6,53.5 441.6,0.1 434,0.1 		"/>
		<path class="st0" d="M482.7,32.6c0,7.8-2.7,11.3-11.2,11.3c-9.5,0-11.1-5.6-11.1-11.3V0.1h-11.8v32.5c0,14.3,8.3,21,23,21
			c14.4,0,23-6.9,23-21V0.1h-11.8L482.7,32.6L482.7,32.6z"/>
		<polygon class="st0" points="535.9,35.8 535.8,35.8 513.3,0.1 501.5,0.1 501.5,53.4 512.5,53.4 512.5,17.6 512.8,17.6 535.1,53.4
			547,53.4 547,0.1 535.9,0.1 		"/>
		<rect x="553.8" y="0.1" class="st0" width="11.8" height="53.3"/>
		<polygon class="st0" points="572.6,9.9 588.8,9.9 588.8,53.4 600.6,53.4 600.6,9.9 616.9,9.9 616.9,0.1 572.6,0.1 		"/>
		<polygon class="st0" points="649.7,21.1 637.1,0.1 623.8,0.1 643.6,32.7 643.6,53.5 655.5,53.5 655.5,33 675.4,0.1 662.4,0.1
			"/>
		<path class="st0" d="M713.1,25.2L713.1,25.2c5.6-1.3,9.4-6.5,9.4-12.1c0-9.9-8.2-13.1-17.3-13.1h-22.8v53.4h22.8
			c17.5,0,19.3-10.1,19.3-15.1C724.5,31.2,720,26.1,713.1,25.2z M687.5,4.3h17.7c8.2,0,12.2,3.4,12.2,9.9c0,5-3.9,9-12.2,9h-17.7
			V4.3z M705.2,49h-17.7V27.7h17.7c9.1,0,14.1,3.4,14.1,10.3C719.4,46.7,712.8,49,705.2,49z"/>
		<path class="st0" d="M760,27.7L760,27.7c6.9-1.5,10.5-6.9,10.5-13.7c0-9.7-7.6-13.9-16.3-13.9h-24.7v53.3h5.2V29.7h19.4
			c9.7-0.3,10.5,7.9,10.7,15.4c0.3,2.2,0.3,6.3,1.4,8.3h5.7c-2.3-2.6-2.3-9.9-2.6-13.7C769,33.3,767,28.7,760,27.7z M753.8,25.4
			h-19.2v-21h19.2c7.8,0,11.7,4.1,11.7,10.6C765.3,21.6,760,25.4,753.8,25.4z"/>
		<rect x="778.9" y="0.1" class="st0" width="5.2" height="53.3"/>
		<path class="st0" d="M809.5,0.1h-18.6v53.3h18.6c16.3-0.3,24.8-9,24.8-26.7S825.9,0.4,809.5,0.1z M807,49h-11V4.3h11
			c15.5,0,22.2,6.4,22.2,22.4S822.5,49,807,49z"/>
		<path class="st0" d="M867,30.4h18.4c0.3,10.9-6.7,18.8-18.6,18.8c-14.3,0-20.3-11.3-20.3-22.5s6-22.5,20.3-22.5
			c10.2,0,16.8,6.9,17.3,12.8h5.2c-2.1-11.2-11.2-17-22.5-17c-17,0-25.4,12.6-25.4,26.7s8.4,26.7,25.4,26.7
			c7.8,0,15.1-3.1,18.6-10.5h0.1l0.7,9.4h3.7v-26h-22.8L867,30.4L867,30.4z"/>
		<polygon class="st0" points="901.9,49 901.9,27.9 932,27.9 932,23.6 901.9,23.6 901.9,4.3 934,4.3 934,0.1 896.7,0.1 896.7,53.4
			934.4,53.4 934.4,49 		"/>
	</g>
	<path class="st0" d="M248.7,200.3h-27V71.1h74.1v22.5h-47.1v33.3h43.8v22.4h-43.8V200.3z"/>
	<path class="st0" d="M422.5,71.5v82.2c0,9.4-2.1,17.6-6.3,24.7c-4.2,7.1-10.3,12.5-18.2,16.3c-7.9,3.8-17.3,5.6-28.2,5.6
		c-16.3,0-29-4.2-38.1-12.6c-9-8.4-13.6-19.8-13.6-34.4V71.5H345v77.8c0,9.8,2,17,5.9,21.6c3.9,4.6,10.5,6.9,19.6,6.9
		c8.8,0,15.2-2.3,19.2-6.9c4-4.6,6-11.8,6-21.7V71.5H422.5z"/>
	<path class="st0" d="M559.1,200.3h-34.7l-56-97.4h-0.8c1.1,17.2,1.7,29.5,1.7,36.8v60.6h-24.4V71.5h34.4l55.9,96.5h0.6
		c-0.9-16.7-1.3-28.6-1.3-35.5v-61h24.6V200.3z"/>
	<path class="st0" d="M688.4,134.7c0,21.2-6,37.4-18.1,48.7c-12.1,11.3-29.5,16.9-52.3,16.9h-36.5V71.5h40.4c21,0,37.3,5.5,49,16.6
		C682.5,99.3,688.4,114.8,688.4,134.7z M660,135.4c0-27.7-12.2-41.5-36.6-41.5h-14.5v83.9h11.7C646.8,177.8,660,163.6,660,135.4z"/>
	<path class="st0" d="M710.7,200.5V71.3h27.4v129.2H710.7z"/>
	<path class="st0" d="M874.8,200.2h-34.7l-56-97.4h-0.8c1.1,17.2,1.7,29.5,1.7,36.8v60.6h-24.4V71.4H795l55.9,96.5h0.6
		c-0.9-16.7-1.3-28.6-1.3-35.5v-61h24.6V200.2z"/>
	<path class="st0" d="M950.3,128.3h49.7v64.9c-8.1,2.6-15.6,4.5-22.7,5.5c-7.1,1.1-14.4,1.6-21.8,1.6c-18.9,0-33.3-5.6-43.3-16.7
		c-10-11.1-15-27.1-15-47.9c0-20.2,5.8-36,17.4-47.3c11.6-11.3,27.6-17,48.1-17c12.9,0,25.2,2.6,37.2,7.7l-8.8,21.3
		c-9.1-4.6-18.7-6.9-28.5-6.9c-11.5,0-20.7,3.9-27.6,11.6c-6.9,7.7-10.4,18.1-10.4,31.1c0,13.6,2.8,24,8.4,31.1
		c5.6,7.2,13.7,10.8,24.3,10.8c5.5,0,11.2-0.6,16.9-1.7v-26.1h-23.7V128.3z"/>
</g>
</svg>
